<mxfile host="app.diagrams.net" agent="Mozilla/5.0 (Macintosh; Intel Mac OS X 10_15_7) AppleWebKit/537.36 (KHTML, like Gecko) Chrome/140.0.0.0 Safari/537.36" version="28.2.7">
  <diagram name="Page-1" id="0783ab3e-0a74-02c8-0abd-f7b4e66b4bec">
    <mxGraphModel dx="1148" dy="781" grid="1" gridSize="10" guides="1" tooltips="1" connect="1" arrows="1" fold="1" page="1" pageScale="1" pageWidth="850" pageHeight="1100" background="none" math="0" shadow="0">
      <root>
        <mxCell id="0" />
        <mxCell id="1" parent="0" />
        <mxCell id="6EqOyDJARIFo97apn3Go-1" value="" style="rounded=0;whiteSpace=wrap;html=1;" vertex="1" parent="1">
          <mxGeometry x="170" y="80" width="510" height="560" as="geometry" />
        </mxCell>
        <mxCell id="6EqOyDJARIFo97apn3Go-2" value="Sistema de Gestão de Olimpíadas" style="text;whiteSpace=wrap;html=1;" vertex="1" parent="1">
          <mxGeometry x="315" y="80" width="220" height="40" as="geometry" />
        </mxCell>
        <mxCell id="6EqOyDJARIFo97apn3Go-7" value="Organizador do Evento" style="shape=umlActor;verticalLabelPosition=bottom;verticalAlign=top;html=1;outlineConnect=0;" vertex="1" parent="1">
          <mxGeometry x="60" y="150" width="50" height="100" as="geometry" />
        </mxCell>
        <mxCell id="6EqOyDJARIFo97apn3Go-19" style="edgeStyle=orthogonalEdgeStyle;rounded=0;orthogonalLoop=1;jettySize=auto;html=1;exitX=0.5;exitY=0.5;exitDx=0;exitDy=0;exitPerimeter=0;entryX=0.5;entryY=1;entryDx=0;entryDy=0;endArrow=none;endFill=0;" edge="1" parent="1" source="6EqOyDJARIFo97apn3Go-9" target="6EqOyDJARIFo97apn3Go-15">
          <mxGeometry relative="1" as="geometry">
            <Array as="points">
              <mxPoint x="238" y="480" />
              <mxPoint x="238" y="590" />
              <mxPoint x="425" y="590" />
            </Array>
          </mxGeometry>
        </mxCell>
        <mxCell id="6EqOyDJARIFo97apn3Go-9" value="Comitê Olímpico" style="shape=umlActor;verticalLabelPosition=bottom;verticalAlign=top;html=1;outlineConnect=0;" vertex="1" parent="1">
          <mxGeometry x="60" y="430" width="50" height="100" as="geometry" />
        </mxCell>
        <mxCell id="6EqOyDJARIFo97apn3Go-11" value="&lt;span style=&quot;font-family: monospace;&quot;&gt;Cadastrar Competição&lt;/span&gt;" style="ellipse;whiteSpace=wrap;html=1;" vertex="1" parent="1">
          <mxGeometry x="365" y="150" width="120" height="80" as="geometry" />
        </mxCell>
        <mxCell id="6EqOyDJARIFo97apn3Go-24" style="edgeStyle=orthogonalEdgeStyle;rounded=0;orthogonalLoop=1;jettySize=auto;html=1;exitX=0;exitY=0.5;exitDx=0;exitDy=0;endArrow=none;endFill=0;entryX=0.75;entryY=0.1;entryDx=0;entryDy=0;entryPerimeter=0;" edge="1" parent="1" source="6EqOyDJARIFo97apn3Go-12" target="6EqOyDJARIFo97apn3Go-7">
          <mxGeometry relative="1" as="geometry">
            <Array as="points">
              <mxPoint x="238" y="290" />
              <mxPoint x="238" y="160" />
            </Array>
          </mxGeometry>
        </mxCell>
        <mxCell id="6EqOyDJARIFo97apn3Go-12" value="&lt;font face=&quot;monospace&quot;&gt;Inscrever Atleta&lt;/font&gt;" style="ellipse;whiteSpace=wrap;html=1;" vertex="1" parent="1">
          <mxGeometry x="365" y="250" width="120" height="80" as="geometry" />
        </mxCell>
        <mxCell id="6EqOyDJARIFo97apn3Go-13" value="&lt;font face=&quot;monospace&quot;&gt;Alocar Local&lt;/font&gt;" style="ellipse;whiteSpace=wrap;html=1;" vertex="1" parent="1">
          <mxGeometry x="365" y="350" width="120" height="80" as="geometry" />
        </mxCell>
        <mxCell id="6EqOyDJARIFo97apn3Go-23" style="edgeStyle=orthogonalEdgeStyle;rounded=0;orthogonalLoop=1;jettySize=auto;html=1;exitX=0.5;exitY=0;exitDx=0;exitDy=0;endArrow=none;endFill=0;entryX=0.5;entryY=0.5;entryDx=0;entryDy=0;entryPerimeter=0;" edge="1" parent="1" source="6EqOyDJARIFo97apn3Go-14" target="6EqOyDJARIFo97apn3Go-7">
          <mxGeometry relative="1" as="geometry">
            <Array as="points">
              <mxPoint x="425" y="440" />
              <mxPoint x="150" y="440" />
              <mxPoint x="150" y="200" />
            </Array>
          </mxGeometry>
        </mxCell>
        <mxCell id="6EqOyDJARIFo97apn3Go-14" value="&lt;font face=&quot;monospace&quot;&gt;Registar Resultados&lt;/font&gt;" style="ellipse;whiteSpace=wrap;html=1;" vertex="1" parent="1">
          <mxGeometry x="365" y="450" width="120" height="80" as="geometry" />
        </mxCell>
        <mxCell id="6EqOyDJARIFo97apn3Go-15" value="Gerar Relatório de Medalhas" style="ellipse;whiteSpace=wrap;html=1;" vertex="1" parent="1">
          <mxGeometry x="365" y="550" width="120" height="80" as="geometry" />
        </mxCell>
        <mxCell id="6EqOyDJARIFo97apn3Go-20" style="edgeStyle=orthogonalEdgeStyle;rounded=0;orthogonalLoop=1;jettySize=auto;html=1;exitX=0.5;exitY=0;exitDx=0;exitDy=0;entryX=0.5;entryY=0;entryDx=0;entryDy=0;entryPerimeter=0;endArrow=none;endFill=0;" edge="1" parent="1" source="6EqOyDJARIFo97apn3Go-11" target="6EqOyDJARIFo97apn3Go-7">
          <mxGeometry relative="1" as="geometry">
            <Array as="points">
              <mxPoint x="425" y="120" />
              <mxPoint x="85" y="120" />
            </Array>
          </mxGeometry>
        </mxCell>
        <mxCell id="6EqOyDJARIFo97apn3Go-22" style="edgeStyle=orthogonalEdgeStyle;rounded=0;orthogonalLoop=1;jettySize=auto;html=1;exitX=0;exitY=0.5;exitDx=0;exitDy=0;endArrow=none;endFill=0;entryX=1;entryY=0.3333333333333333;entryDx=0;entryDy=0;entryPerimeter=0;" edge="1" parent="1" source="6EqOyDJARIFo97apn3Go-13" target="6EqOyDJARIFo97apn3Go-7">
          <mxGeometry relative="1" as="geometry">
            <mxPoint x="100" y="240" as="targetPoint" />
            <Array as="points">
              <mxPoint x="270" y="390" />
              <mxPoint x="270" y="340" />
              <mxPoint x="190" y="340" />
              <mxPoint x="190" y="183" />
            </Array>
          </mxGeometry>
        </mxCell>
      </root>
    </mxGraphModel>
  </diagram>
</mxfile>
